<svg width="48" height="48" viewBox="0 0 48 48" fill="none" xmlns="http://www.w3.org/2000/svg">
<g clip-path="url(#clip0_287_1533)">
<path d="M32.5053 33.9237L31.3684 29.3125H29.2632L32.4211 26.125L31.3684 25.0625L29.2632 17.625L17.6842 7L12.4211 14.4375L16.6316 12.3125L20.8421 18.6875H17.6842L15.5789 32.5L19.4947 33.6581C10.6211 34.0406 4 35.5175 4 37.2812C4 39.3319 12.9579 41 24 41C35.0421 41 44 39.3319 44 37.2812C44 35.7938 39.2947 34.5187 32.5053 33.9237ZM28.2105 29.3125L24 28.25L22.9474 25.0625L28.2105 29.3125Z" fill="#999999"/>
</g>
<defs>
<clipPath id="clip0_287_1533">
<rect width="48" height="48" fill="white" transform="matrix(-1 0 0 1 48 0)"/>
</clipPath>
</defs>
</svg>
