<svg xmlns="http://www.w3.org/2000/svg" viewBox="0 0 56 56"><defs><style>.cls-1{fill:none;}</style></defs><title>Asset 21</title><g id="Layer_2" data-name="Layer 2"><g id="Layer_1-2" data-name="Layer 1"><path d="M21.29,39.63v1h6.12v-1a4,4,0,0,1,4-4h1V20.37h-1a4,4,0,0,1-4-4v-1H21.29v1a4,4,0,0,1-4,4h-1V35.63h1A4,4,0,0,1,21.29,39.63Zm-3-17.34a6,6,0,0,0,4.92-4.92H25.5a6,6,0,0,0,4.91,4.92V33.71a6,6,0,0,0-4.91,4.92H23.21a6,6,0,0,0-4.92-4.92Z"/><path d="M37.71,10H11V46H37.71V12H41V45h2V10Zm-2,34H13V12H35.71Z"/><rect x="16.41" y="15.47" width="1.76" height="1.79"/><rect x="30.53" y="15.47" width="1.76" height="1.79"/><rect x="16.41" y="38.74" width="1.76" height="1.79"/><rect x="30.53" y="38.74" width="1.76" height="1.79"/><rect class="cls-1" width="56" height="56"/></g></g></svg>