<svg xmlns="http://www.w3.org/2000/svg" viewBox="0 0 56 56"><defs><style>.cls-1,.cls-3{fill:none;}.cls-1,.cls-2{stroke:#000;stroke-miterlimit:10;stroke-width:2px;}</style></defs><title>Asset 36</title><g id="Layer_2" data-name="Layer 2"><g id="Layer_1-2" data-name="Layer 1"><path class="cls-1" d="M46.18,13.45v6.37a3,3,0,0,1-1.65,2.27C41.66,24,35.34,25.27,28,25.27S14.34,24,11.47,22.09a3,3,0,0,1-1.65-2.27V13.45C9.82,10.44,18,8,28,8S46.18,10.44,46.18,13.45Z"/><ellipse class="cls-1" cx="28" cy="13.45" rx="18.18" ry="5.45"/><path class="cls-1" d="M9.82,24.36v6.37c0,1,.89,1.93,2.44,2.72"/><path class="cls-1" d="M46.18,24.36v6.37c0,1-.89,1.93-2.44,2.72"/><path class="cls-1" d="M46.18,24.36c0,3-8.13,5.46-18.18,5.46S9.82,27.37,9.82,24.36a3,3,0,0,1,1.65-2.27C14.34,24,20.66,25.27,28,25.27S41.66,24,44.53,22.09A3,3,0,0,1,46.18,24.36Z"/><path class="cls-1" d="M46.18,36.18v6.37c0,3-8.13,5.45-18.18,5.45S9.82,45.55,9.82,42.55V36.18"/><path class="cls-2" d="M46.18,36.18c0,3-8.13,5.46-18.18,5.46S9.82,39.19,9.82,36.18c0-1,.89-1.93,2.44-2.73,3.15,1.63,9,2.73,15.74,2.73s12.59-1.1,15.74-2.73C45.29,34.25,46.18,35.18,46.18,36.18Z"/><rect class="cls-3" width="56" height="56"/></g></g></svg>