<svg xmlns="http://www.w3.org/2000/svg" viewBox="0 0 56 56"><defs><style>.cls-1,.cls-2{fill:none;}.cls-2,.cls-3{stroke:#000;stroke-miterlimit:10;stroke-width:2px;}</style></defs><title>Asset 37</title><g id="Layer_2" data-name="Layer 2"><g id="Layer_1-2" data-name="Layer 1"><rect class="cls-1" width="56" height="56"/><line class="cls-2" x1="8" y1="48" x2="48" y2="48"/><polyline class="cls-2" points="11 31 21 31 28 27 35 31 45 31"/><line class="cls-2" x1="11" y1="25" x2="24" y2="25"/><line class="cls-2" x1="13" y1="25" x2="13" y2="48"/><line class="cls-2" x1="21" y1="25" x2="21" y2="48"/><polygon class="cls-2" points="17 11 13 25 21 25 17 11"/><line class="cls-2" x1="17" y1="4" x2="17" y2="11"/><line class="cls-2" x1="32" y1="25" x2="45" y2="25"/><line class="cls-2" x1="35" y1="25" x2="35" y2="48"/><line class="cls-2" x1="43" y1="25" x2="43" y2="48"/><polygon class="cls-2" points="39 11 35 25 43 25 39 11"/><line class="cls-2" x1="39" y1="4" x2="39" y2="11"/><path class="cls-3" d="M28,39h0a2,2,0,0,1,2,2v7a0,0,0,0,1,0,0H26a0,0,0,0,1,0,0V41a2,2,0,0,1,2-2Z"/><circle cx="28" cy="32" r="1"/><line class="cls-2" x1="20" y1="19" x2="36" y2="19"/><polyline class="cls-2" points="24 29.29 24 25 24 19"/><polyline class="cls-2" points="32 29.29 32 25 32 19"/><line class="cls-2" x1="28" y1="19" x2="28" y2="27"/><polyline class="cls-2" points="19.29 19 20 19 24 19 28 19 32 19 36 19 36.71 19"/></g></g></svg>